<?xml version="1.0" ?><svg data-name="Layer 1" id="Layer_1" viewBox="0 0 100 100" xmlns="http://www.w3.org/2000/svg"><title/><path d="M46.25,22.51c-11.72,1.9-20.17,12.41-20.39,24.14a27.86,27.86,0,0,0,5.93,17,56.81,56.81,0,0,0,6.5,7.18c3.91,3.74,4.6,7.35,5.27,12.48-.68.33-.45,1.67.42,1.58a30.92,30.92,0,0,1,5.39-.12,15.65,15.65,0,0,0-4.91,1.36,1.06,1.06,0,0,0,.25,1.91c1.44.24,2.87.52,4.3.82a19.29,19.29,0,0,0-4.23,1,1,1,0,0,0,0,1.93,52.81,52.81,0,0,0,9.28,1.82c1.51.15,1.53-2.28,0-2.38-1.16-.07-2.3-.23-3.43-.4,1.79-.12,3.59-.16,5.41-.46,1.18-.19,1.07-2,0-2.28-2-.5-4-.93-6.07-1.3l.47-.07c1.74-.26,3.49-.63,5.24-.8,1.2-.11,1.61-1.88.3-2.21l-.32-.07a1.61,1.61,0,0,0,.54-1.46c-.75-5.41-1-10.87,1.65-15.84,1.67-3.13,4.13-5.73,6.24-8.55a26.8,26.8,0,0,0,5.68-18.16C68.85,27.53,57.81,20.64,46.25,22.51Zm17,31c-2.84,4.47-6.93,8.1-9,13-2.21,5.22-2.1,11-1,16.41a1.73,1.73,0,0,0,.06.2,32.26,32.26,0,0,0-8.75-.05c.15-3.85.15-8.18-2.35-11.24-3.69-4.54-8.2-8-11-13.3-6.77-12.89-.7-30.06,14.16-33.38,6.87-1.54,15.24.51,19.18,6.76C68.64,38.43,67.16,47.42,63.27,53.54ZM43.93,31.08c-5.67,1.31-6,9.11-5.32,13.66a36.79,36.79,0,0,0,6.18,14.8c-.9,2.79-1.66,5.08-2,6.35a.74.74,0,0,0,1.42.39c.49-1.72,1.07-3.44,1.67-5.15a46.58,46.58,0,0,0,3.54,4.21c1,1,2.93-.36,2-1.58-1.47-2-3-4-4.36-6,2-5.33,4-10.67,4.71-16.25C52.5,36.75,50.06,29.67,43.93,31.08Zm2,24.81c-.64-1-1.25-2.09-1.79-3.19-1.64-3.32-6.83-19.59,1.24-18.63C51.6,34.81,48.79,46.62,45.95,55.89Zm-25.57-11c-3.27.57-6.51,1.26-9.76,1.91a1.06,1.06,0,0,1-.56-2,67.53,67.53,0,0,1,10.05-1.9C21.26,42.68,21.51,44.65,20.38,44.85ZM25,30a40.59,40.59,0,0,1-9.78-7.67c-.82-.86.4-2,1.28-1.28,3.13,2.61,6.37,5.06,9.52,7.63C26.79,29.29,25.8,30.42,25,30ZM43.93,17.89a64.23,64.23,0,0,1-1-10.61c0-1,1.63-1.27,1.8-.24a64.29,64.29,0,0,1,.91,10.62C45.6,18.61,44.12,18.86,43.93,17.89ZM67.43,22c2.35-2.26,4.73-4.49,7.29-6.52,1-.78,2.39.55,1.41,1.41-2.45,2.15-5,4.22-7.42,6.38C67.84,24,66.59,22.78,67.43,22ZM90.37,47.74c-5.64-.56-11.28-1.61-16.85-2.65-.89-.17-.68-1.67.21-1.57,5.63.59,11.34,1.2,16.9,2.27C91.73,46,91.47,47.85,90.37,47.74Z"/></svg>